<svg id="visual" viewBox="0 0 900 600" width="900" height="600" xmlns="http://www.w3.org/2000/svg" xmlns:xlink="http://www.w3.org/1999/xlink" version="1.1"><rect x="0" y="0" width="900" height="600" fill="#82b1c9"></rect><path d="M0 187L30 203.3C60 219.7 120 252.3 180 282.2C240 312 300 339 360 325.5C420 312 480 258 540 273.8C600 289.7 660 375.3 720 388.5C780 401.7 840 342.3 870 312.7L900 283L900 601L870 601C840 601 780 601 720 601C660 601 600 601 540 601C480 601 420 601 360 601C300 601 240 601 180 601C120 601 60 601 30 601L0 601Z" fill="#184d9b" stroke-linecap="round" stroke-linejoin="miter"></path></svg>