<svg id="visual" viewBox="0 0 900 600" width="900" height="600" xmlns="http://www.w3.org/2000/svg" xmlns:xlink="http://www.w3.org/1999/xlink" version="1.1"><rect x="0" y="0" width="900" height="600" fill="#82b1c9"></rect><path d="M0 232L30 244.5C60 257 120 282 180 280.2C240 278.3 300 249.7 360 262.8C420 276 480 331 540 348.3C600 365.7 660 345.3 720 347.5C780 349.7 840 374.3 870 386.7L900 399L900 601L870 601C840 601 780 601 720 601C660 601 600 601 540 601C480 601 420 601 360 601C300 601 240 601 180 601C120 601 60 601 30 601L0 601Z" fill="#184d9b" stroke-linecap="round" stroke-linejoin="miter"></path></svg>